<svg width="121" height="136" viewBox="0 0 121 136" fill="none" xmlns="http://www.w3.org/2000/svg">
<path opacity="0.16" d="M41.839 -32.1005C39.0797 -27.5387 36.204 -23.934 34.5895 -21.9388C36.284 -20.4589 38.1296 -18.9116 40.1262 -17.297C44.4636 -21.3359 58.6186 -34.3909 66.4487 -38.1389C75.7913 -42.8415 106.085 -55.9384 106.085 -55.9384C106.085 -55.9384 89.6786 -41.8965 80.0648 -34.9617C72.2493 -29.2159 50.9759 -18.069 43.599 -14.1188C45.5956 -12.5041 47.676 -10.671 49.7563 -8.83798C56.0757 -13.2599 73.4032 -24.8998 82.4091 -28.8475C93.5991 -33.6311 114.124 -36.6039 114.124 -36.6039C114.124 -36.6039 93.0931 -31.6846 86.2676 -25.3162C79.3749 -18.7968 75.0194 -13.4989 65.9971 -9.92055C60.4694 -7.67972 56.2359 -6.30979 53.9007 -5.54124C56.518 -3.28767 59.1353 -1.03411 61.9036 1.28683C66.3083 -2.90306 79.1692 -15.0872 86.9993 -18.8352C96.5767 -23.252 125.462 -38.0635 125.462 -38.0635C125.462 -38.0635 111.108 -27.8122 102.181 -18.7611C94.5982 -11.1013 72.2491 0.832959 65.5948 4.38142C66.9034 5.50821 68.2121 6.63499 69.6718 7.82916C74.1765 4.22697 89.2871 -7.31571 97.7888 -10.9452C107.97 -15.0925 143.486 -27.3083 143.486 -27.3083C143.486 -27.3083 127.102 -17.7821 116.663 -9.40488C107.872 -2.2841 80.94 8.14894 73.1445 11.0073C75.3759 12.9078 77.6074 14.8082 79.8388 16.7086C83.1496 14.5651 94.0393 8.01833 101.012 4.97398C109.363 1.27709 120.771 -3.59012 128.536 -8.81556C136.368 -14.192 148.823 -23.8419 148.823 -23.8419C148.823 -23.8419 121.972 3.46234 109.723 9.40261C100.011 14.1214 86.9754 17.3577 81.8518 18.6927C84.7039 21.232 87.556 23.7713 90.5591 26.378C95.0803 23.1451 109.45 13.2632 121.445 9.92454C135.925 5.8847 171.75 2.31469 171.75 2.31469C171.75 2.31469 152.617 6.63264 139.731 11.5647C128.374 15.9116 99.7961 25.9727 92.9416 28.3458C95.1731 30.2462 97.3371 32.2976 99.5686 34.1981C105.568 30.9004 125.128 19.5325 136.635 16.8814C150.342 13.7636 178.679 8.30173 178.679 8.30173C178.679 8.30173 153.04 19.4922 138.137 25.6969C125.922 30.7475 108.434 35.4374 102.504 36.9557C104.736 38.8562 106.749 40.8402 108.829 42.6732C112.995 41.4543 133.02 35.5429 145.097 34.051C158.718 32.3432 187.368 32.2705 187.368 32.2705C187.368 32.2705 162.473 38.5435 146.23 41.2544C132.558 43.4825 116.182 44.867 111.312 45.2287C114.399 48.0538 117.116 50.8951 119.75 53.518C123.9 51.9297 135.643 47.9359 148.256 46.8645C164.044 45.5798 183.087 45.9285 183.087 45.9285C183.087 45.9285 164.675 51.473 150.315 53.2132C139.784 54.4894 127.758 55.461 122.149 55.8551C124.245 58.0575 126.04 60.1251 127.902 62.0418C132.454 61.1759 145.22 58.5435 155.364 58.5426C167.791 58.2935 186.01 60.0846 186.01 60.0846C186.01 60.0846 173.599 60.7031 160.917 63.5539C150.653 65.8544 135.657 64.958 130.082 64.4625C132.112 66.8159 134.141 69.1692 135.868 71.3878C139.833 70.6218 152.766 68.4262 158.509 69.3584C165.376 70.6114 186.465 73.6828 186.465 73.6828C186.465 73.6828 167.991 74.4933 158.754 74.8985C152.104 75.1903 142.348 73.916 137.361 73.3207C138.853 75.2535 140.346 77.1864 141.604 78.8335C146.592 77.8005 162.247 75.1894 166.159 76.572C170.893 78.1406 190.706 80.824 190.706 80.824C190.706 80.824 174.904 80.111 164.408 80.4975C156.867 80.7543 147.697 81.0085 143.112 81.1357C144.219 82.7154 145.175 84.2277 146.13 85.7401C149.17 85.8287 160.891 86.3507 166.517 86.3259C173.184 86.4035 186.986 88.7585 186.986 88.7585C186.986 88.7585 176.926 88.9778 169.739 88.849C163.962 88.8064 152.005 87.9987 147.623 87.6729C148.343 88.8995 148.98 89.9077 149.55 91.0669C152.287 91.0208 163.892 90.5857 169.416 91.6016C175.914 92.8708 188.689 97.1211 188.689 97.1211C188.689 97.1211 177.556 96.4993 168.237 95.0579C160.933 93.9721 153.562 93.0373 150.657 92.6466C151.294 93.6548 151.629 94.5283 152.115 95.4691C154.415 95.5902 160.141 96.1532 165.647 98.428C172.663 101.377 182.315 105.32 182.315 105.32C182.315 105.32 173.766 106.213 165.037 103.044C159.095 100.936 154.748 98.092 152.684 96.6283C154.158 99.8202 154.761 101.718 155.096 102.592C156.288 102.761 160.401 103.691 164.983 106.821C170.335 110.656 175.737 115.6 175.737 115.6C175.737 115.6 168.583 116.21 165.396 112.797C162.141 109.536 160.145 107.921 160.145 107.921C160.145 107.921 163.432 111.921 165.088 117.548C166.963 123.09 165.376 130.709 165.376 130.709C165.376 130.709 158.705 118.864 157.921 114.532C157.169 110.938 155.948 106.773 155.396 104.355C155.462 105.832 155.425 108.35 155.119 111.472C154.459 116.608 152.085 121.523 152.085 121.523C152.085 121.523 150.513 116.115 151.778 111.248C153.043 106.382 153.412 106.366 154.357 102.624C153.25 101.044 150.988 96.7768 148.942 94.0541C149.51 96.8416 150.209 102.584 149.413 108.022C148.279 115.843 145.729 128.463 145.729 128.463C145.729 128.463 144.656 112.597 146.443 106.154C147.708 101.287 148.352 95.7822 148.54 93.3316C147.517 91.9702 146.41 90.3905 145.085 88.8944C145.384 92.2859 145.646 98.1953 145.02 102.441C143.971 108.853 143.316 109.103 141.813 116.94C140.46 124.845 140.482 135.354 140.482 135.354C140.482 135.354 135.457 123.88 137.075 118.629C138.693 113.377 137.608 107.281 139.883 100.15C141.367 95.2005 142.515 89.3772 143.04 86.1717C141.866 84.743 140.608 83.0958 139.199 81.3814C138.791 85.5439 138.06 94.0874 136.289 100.9C133.877 109.961 126.667 129.373 126.667 129.373C126.667 129.373 128.874 108.997 130.645 102.184C132.095 96.4954 135.705 82.7189 136.7 78.4565C135.057 76.4563 133.111 74.3213 131.384 72.1027C131.395 77.357 131.314 88.9064 130.097 96.5091C128.54 106.495 123.395 127.37 123.395 127.37C123.395 127.37 122.01 104.487 124.356 93.9485C126.213 85.7257 128.359 74.0117 129.12 69.4636C127.09 67.1102 124.91 64.6894 122.729 62.2687C123.11 67.5069 124.232 84.4804 123.368 91.6975C122.116 100.19 116.531 122.86 116.531 122.86C116.531 122.86 115.854 97.578 117.123 89.455C118.29 82.3727 119.939 64.4634 120.247 59.7132C118.15 57.5108 116.053 55.3084 113.805 53.0386C113.11 59.0641 111.495 76.0837 111.958 83.1686C112.637 91.7982 110.403 91.5261 109.688 100.439C108.973 109.352 109.276 122.883 109.276 122.883C109.276 122.883 103.834 108.689 104.95 102.127C105.915 95.4976 102.413 88.3241 103.463 80.2847C105.123 67.6298 108.949 55.398 110.735 50.5829C108.638 48.3805 106.323 46.2617 104.008 44.1429C103.884 49.6993 103.088 70.1615 101.854 77.3948C100.451 85.8197 93.6364 112.467 93.6364 112.467C93.6364 112.467 95.2491 97.0757 95.4421 89.7401C95.635 82.4044 91.6782 76.6571 94.2082 66.9245C96.1648 59.2894 99.8397 46.9902 101.39 41.8894C100.082 40.7626 98.9242 39.7032 97.6156 38.5764C96.3069 37.4496 94.9983 36.3229 93.6897 35.1961C93.3656 39.577 92.5829 48.6408 90.6754 57.3839C87.9416 69.1977 82.8817 73.6384 81.7786 83.8264C80.5245 93.9471 81.6165 108.554 81.6165 108.554C81.6165 108.554 75.2189 92.8477 77.798 84.2231C80.2261 75.5312 84.0811 67.2948 84.0375 61.3017C83.8428 55.2413 83.2931 51.1947 85.9196 45.3066C87.7379 41.2301 90.4808 36.299 91.8441 33.6488C88.6899 30.9747 85.3008 28.0149 81.7608 24.9877C81.839 30.0911 82.0027 48.8089 80.1443 58.66C78.133 70.0721 67.6072 96.5121 67.6072 96.5121C67.6072 96.5121 71.2239 76.2222 71.8228 66.3523C72.4216 56.4824 71.5244 47.9364 74.22 40.2689C76.1912 34.6315 78.6684 27.0476 79.9826 23.2894C77.7511 21.389 75.3686 19.4212 72.9861 17.4533C72.5256 23.7646 71.2296 41.2883 70.1447 50.2173C68.856 61.2276 62.2216 91.9376 62.2216 91.9376C62.2216 91.9376 64.6315 69.4802 63.6815 63.0829C62.7314 56.6855 61.7705 45.0338 64.0821 35.3848C65.6019 27.9169 68.6015 18.7559 69.8319 14.7793C67.0635 12.4583 64.2952 10.1374 61.3757 7.74903C61.454 12.8524 61.068 27.5238 58.8056 38.2807C55.9862 51.5046 42.3006 80.1555 42.3006 80.1555C42.3006 80.1555 47.8084 65.7776 48.1397 54.8833C48.4037 44.14 49.0099 27.7567 52.277 19.6201C54.3319 14.201 56.9584 8.3129 58.2215 5.07496C56.527 3.59505 54.6141 2.19873 52.9196 0.718816C52.1588 5.26693 50.3332 15.8567 47.5847 25.6729C44.01 38.5598 30.8504 77.4013 30.8504 77.4013C30.8504 77.4013 33.9065 47.8105 35.734 35.5923C37.4104 23.3068 40.1206 17.637 49.698 -1.80429C47.6177 -3.63733 45.3189 -5.38678 43.2385 -7.21983C43.4369 -4.41607 42.7252 1.24006 38.0438 12.5472C29.4219 33.5008 13.98 55.9378 13.98 55.9378C13.98 55.9378 20.3286 40.4868 22.5383 31.8785C24.4276 24.3944 36.8864 -3.5366 39.8495 -10.1797C38.004 -11.727 36.1584 -13.2742 34.3965 -14.6032C34.4766 -11.1281 33.9815 -3.92725 29.7897 5.06409C23.6796 17.5441 1.49977 28.2868 1.49977 28.2868C1.49977 28.2868 20.5581 15.6087 23.2537 7.94124C25.9494 0.27376 23.5159 -1.17373 26.0914 -6.54158C27.8587 -10.0977 30.4833 -14.3575 32.0814 -16.722C29.9337 -18.404 29.162 -19.1103 27.1653 -20.725C26.5392 -16.4788 22.0617 -7.25294 15.8751 -1.50463C8.05774 5.86946 0.700882 6.93234 0.700882 6.93234C0.700882 6.93234 6.51795 1.20024 10.5568 -6.23012C13.7711 -12.2181 21.8743 -19.8268 24.9339 -22.6254C10.7226 -34.2139 0.504617 -42.5731 0.504617 -42.5731L7.67763 -44.442C7.67763 -44.442 16.7381 -37.1423 31.5026 -24.7639C32.7331 -28.7405 36.5735 -38.9746 42.1576 -46.6208C49.3562 -56.2621 66.0138 -69.649 66.0138 -69.649C66.0138 -69.649 54.194 -57.3625 50.3081 -51.4931C46.8917 -45.0522 45.978 -38.9432 41.839 -32.1005Z" fill="white"/>
</svg>
