<svg width="49" height="183" viewBox="0 0 49 183" fill="none" xmlns="http://www.w3.org/2000/svg">
<path opacity="0.2" d="M148.512 40.9237C148.512 40.9237 156.87 48.8826 159.942 58.5127C162.895 68.2494 145.839 73.8647 150.817 80.399C155.554 86.9144 163.873 70.4125 163.873 70.4125C163.873 70.4125 172.773 87.6869 168.011 95.6586C163.246 103.398 147.089 99.3477 146.065 108.424C145.041 117.501 165.819 110.207 165.819 110.207C165.819 110.207 168.316 123.849 159.822 131.876C151.327 139.902 144.623 127.205 143.721 136.407C142.697 145.484 156.506 140.193 156.506 140.193C156.506 140.193 153.311 148.635 144.78 151.095C136.249 153.555 118.86 145.235 118.86 145.235C118.86 145.235 115.106 141.81 123.018 155.066C127.278 162.239 139.374 171.071 139.374 171.071L136.991 174.825C136.991 174.825 129.493 169.6 121.722 159.485C113.952 149.37 112.973 146.975 112.973 146.975C112.973 146.975 114.758 162.183 103.066 178.188C97.4594 185.978 84.176 179.603 84.176 179.603C84.176 179.603 102.737 164.717 95.9635 159.78C89.3112 154.969 86.3754 166.214 76.0906 176.534C65.6846 186.728 48.0831 164.366 48.0831 164.366C48.0831 164.366 65.8824 161.823 65.8352 154.632C65.7881 147.442 49.3555 156.468 39.2522 157.761C29.149 159.054 22.8932 141.292 22.8932 141.292C22.8932 141.292 51.2988 140.741 51.5108 136.353C51.7228 131.965 26.5714 133.119 17.7846 133.241C8.99776 133.362 7.1732 112.123 7.1732 112.123C7.1732 112.123 30.4432 117.775 32.208 111.539C33.9728 105.302 16.887 106.51 6.72596 98.9895C-3.4351 91.4687 2.84404 76.0818 2.84404 76.0818C2.84404 76.0818 18.5925 91.2279 24.5826 86.83C30.5726 82.4321 20.5905 83.8505 5.10427 71.9706C-3.97055 64.8828 5.20523 50.6506 5.20523 50.6506C5.20523 50.6506 12.9757 60.7656 22.2276 58.1307C31.4794 55.4957 17.6854 44.6759 12.7222 40.4611C7.6379 36.1208 18.2803 25.2494 18.2803 25.2494C18.2803 25.2494 36.9618 47.1169 41.8657 42.2859C46.6498 37.5615 32.2 36.8905 26.2141 23.5542C22.9173 16.4565 33.0115 13.7717 33.0115 13.7717C33.0115 13.7717 34.7402 20.3986 44.0742 30.2886C47.3466 33.6752 49.0495 36.359 55.4229 35.3526C61.7963 34.3462 47.766 24.2033 44.2466 19.87C35.1429 8.37532 46.3492 10.0667 52.1105 7.50538C57.9915 4.83756 57.5884 -1.56926 63.7407 0.420708C75.0803 4.09305 66.6941 28.5875 79.0424 20.8637C84.1977 17.6752 82.7687 1.68307 82.7687 1.68307C82.7687 1.68307 91.1934 1.41732 94.9582 6.46536C101.761 15.8088 90.5047 24.8934 99.7869 26.8973C109.069 28.9013 105.478 13.6666 105.478 13.6666C105.478 13.6666 107.878 12.4641 115.864 18.655C123.97 24.9712 115.823 30.8226 118.474 31.2626C127.994 32.8215 122.493 19.9869 122.493 19.9869C122.493 19.9869 129.126 21.7828 136.398 29.3086C143.67 36.8343 130.964 45.1096 135.804 48.967C144.514 55.4466 148.512 40.9237 148.512 40.9237ZM91.1147 62.8446C97.3775 63.3364 102.295 42.1628 94.344 41.3067C86.5132 40.344 83.4065 62.2393 91.1147 62.8446ZM113.465 56.7176C106.7 53.1727 95.1117 84.9499 99.9384 86.7199C104.644 88.3645 118.658 59.3278 113.465 56.7176ZM78.1163 63.2148C81.2158 58.5899 52.3645 46.24 50.2346 51.8684C47.985 57.6032 75.0168 67.8398 78.1163 63.2148ZM76.9235 101.604C78.5655 95.01 33.7208 85.2293 34.4799 90.8527C35.3542 95.6738 75.2814 108.198 76.9235 101.604ZM78.0041 119.539C76.2951 115.928 41.7342 114.025 44.1703 118.389C47.461 124.559 79.713 123.151 78.0041 119.539ZM58.8327 78.0442C58.2931 69.1925 35.7199 59.6538 33.2279 65.1378C30.3799 71.4053 59.3722 86.8959 58.8327 78.0442ZM83.2964 82.1676C85.1839 76.2883 62.9819 68.2857 64.241 76.7302C65.5017 85.4067 81.4089 88.0468 83.2964 82.1676ZM141.271 93.3271C138.356 89.389 121.876 109.423 124.054 111.216C129.26 115.682 146.615 100.47 141.271 93.3271ZM135.29 62.2565C129.021 60.837 113.714 94.7564 119.029 97.492C124.343 100.228 140.474 63.475 135.29 62.2565ZM116.364 39.9062C112.631 39.729 107.187 53.9064 115.012 53.9413C122.595 53.9572 122.384 40.1471 116.364 39.9062Z" fill="white"/>
</svg>
